<?xml version="1.0" encoding="utf-8"?>
<!-- Generator: Adobe Illustrator 22.1.0, SVG Export Plug-In . SVG Version: 6.00 Build 0)  -->
<svg version="1.1" xmlns="http://www.w3.org/2000/svg" xmlns:xlink="http://www.w3.org/1999/xlink" x="0px" y="0px"
	 viewBox="0 0 1280 1024" style="enable-background:new 0 0 1280 1024;" xml:space="preserve">
<style type="text/css">
	.st0{display:none;}
	.st1{display:inline;fill:none;stroke:#000000;stroke-miterlimit:10;}
	.st2{fill:none;stroke:#000000;stroke-miterlimit:10;}
</style>
<g id="Camada_1" class="st0">
</g>
<g id="Camada_2" class="st0">
	<path class="st1" d="M241.8,335.3c0.2,123.5,0.2,248.1,0,371.7"/>
	<path class="st1" d="M930.6,742c-216.3,1-433.8,2-649.9,4.5"/>
	<path class="st1" d="M961.6,333.1C960,460,967,588,960.5,715"/>
	<path class="st1" d="M930.6,300.9C773.2,297,514.9,298,278.2,298"/>
	<path class="st1" d="M241.8,337.3c0-21.7,16.3-39.3,36.4-39.3"/>
	<path class="st1" d="M241.8,706.2c4.5,23.3,19.7,40.3,37.8,40.3"/>
	<path class="st1" d="M961.6,334.3c-2.9-19-18.2-33.5-35.6-33.5"/>
	<path class="st1" d="M960.8,709.2c0,18.1-13.5,32.8-30.3,32.8"/>
	<line class="st1" x1="274.8" y1="298.1" x2="290.8" y2="297.9"/>
</g>
<g id="Camada_3">
</g>
<g id="Camada_4">
</g>
<g id="Camada_5">
	<g id="XMLID_1_">
		<g>
		</g>
		<g>
			<polyline class="st2" points="269.9,298.7 930.6,300.9 931.3,300.9 			"/>
			<polyline class="st2" points="268.4,744.3 321.5,744 382.6,743.7 822.7,741.3 880.2,741 937.7,740.7 939.1,740.7 			"/>
			<path class="st2" d="M241.8,335.3c0-19.6,12.4-35.6,28-36.6c0.5,0,1-0.1,1.5-0.1"/>
			<path class="st2" d="M241.8,707c0,20.6,11.9,37.3,26.6,37.3"/>
			<path class="st2" d="M960.4,707.3c-0.1,18.5-10.3,33.4-22.7,33.4"/>
			<path class="st2" d="M961.6,334.3c0-18.5-13.9-33.5-31.1-33.5"/>
			<polyline class="st2" points="241.8,331 241.8,335.3 241.8,707 			"/>
			<polyline class="st2" points="961.6,334.3 960.4,707 960.4,707.3 960.4,708.6 			"/>
			<path class="st2" d="M315.4,331c0.5,0,1.1,0,1.6,0c188.1,0,376.5,0,565.3,0c1,0,2,0,3,0"/>
			<path class="st2" d="M315.4,691c0.4,0,0.9,0,1.3,0c192.1-0.9,383.5,2,575.5-1.6c0.1,0,0.2,0,0.3,0"/>
			<path class="st2" d="M286.3,368.3c0-20.6,13.7-37.3,30.7-37.3"/>
			<path class="st2" d="M286.3,664.3c0,14.6,13.6,26.5,30.4,26.6c0.1,0,0.2,0,0.3,0"/>
			<path class="st2" d="M286.3,664.3c0-4.8,0-8.7,0-8.7"/>
			<path class="st2" d="M914,655.7c0,18.6-9.7,33.7-21.8,33.7"/>
			<path class="st2" d="M914,363.7c0-18.1-14.2-32.7-31.7-32.7"/>
			<path class="st2" d="M914,363.7c0,97.5,0,194.7,0,292c0,0.8,0,1.6,0,2.5"/>
			<line class="st2" x1="286.3" y1="368.3" x2="286.3" y2="655.7"/>
			<ellipse class="st2" cx="603.6" cy="716" rx="21.1" ry="20.3"/>
			<circle class="st2" cx="555.6" cy="707.3" r="7"/>
			<circle class="st2" cx="527" cy="707.3" r="7"/>
			<circle class="st2" cx="651.4" cy="706.7" r="7"/>
			<circle class="st2" cx="677.3" cy="706.7" r="7"/>
			<line class="st2" x1="321.5" y1="744.4" x2="321.4" y2="771.9"/>
			<polyline class="st2" points="382.6,744.3 382.4,771.3 382.4,772 			"/>
			<line class="st2" x1="321.4" y1="771.9" x2="382.4" y2="771.3"/>
			<polyline class="st2" points="822.7,741.3 822.7,741.3 823.2,767.5 			"/>
			<line class="st2" x1="880.2" y1="741" x2="880.6" y2="767.6"/>
			<polyline class="st2" points="823.2,767.5 880.6,767.6 881.5,767.6 			"/>
		</g>
	</g>
</g>
</svg>
